<?xml version="1.0" encoding="UTF-8" standalone="no"?>
<svg
   xmlns:dc="http://purl.org/dc/elements/1.1/"
   xmlns:cc="http://creativecommons.org/ns#"
   xmlns:rdf="http://www.w3.org/1999/02/22-rdf-syntax-ns#"
   xmlns:svg="http://www.w3.org/2000/svg"
   xmlns="http://www.w3.org/2000/svg"
   width="210mm"
   height="210mm"
   viewBox="0 0 210 210"
   version="1.1"
   id="svg8">
  <defs
     id="defs2" />
  <metadata
     id="metadata5">
    <rdf:RDF>
      <cc:Work
         rdf:about="">
        <dc:format>image/svg+xml</dc:format>
        <dc:type
           rdf:resource="http://purl.org/dc/dcmitype/StillImage" />
        <dc:title></dc:title>
      </cc:Work>
    </rdf:RDF>
  </metadata>
  <g
     id="layer1"
     transform="translate(0,-87)">
    <g
       id="g901"
       transform="matrix(1.0999906,0,0,1.0999906,198.26111,77.35845)"
       style="fill:#000000;fill-opacity:1">
      <path
         style="fill:#000000;fill-opacity:1;stroke:#000000;stroke-width:6.01330882;stroke-miterlimit:4;stroke-dasharray:none;stroke-opacity:1"
         d="m -124.56264,183.03232 c -2.86312,-3.44557 -0.61381,-2.83264 -6.07142,-12.32251 -1.76506,-3.06911 -3.28718,-5.79444 -3.3825,-6.05628 -0.0954,-0.26183 -1.40995,-2.61242 -2.92135,-5.22354 -1.5114,-2.61113 -6.56039,-11.50547 -11.21999,-19.76521 -4.65964,-8.25974 -8.65087,-15.31153 -8.86939,-15.67066 -2.31907,-3.81076 -5.22729,-9.32553 -5.78334,-10.96678 -0.57245,-1.68956 -0.59233,-2.12613 -0.11497,-2.52233 0.6693,-0.55545 6.10003,-0.40305 31.12979,0.87369 9.21739,0.47017 24.69218,1.2449 34.388383,1.72163 9.696213,0.47671 23.701849,1.18035 31.123679,1.56364 7.421791,0.38328 17.160085,0.83034 21.64066,0.99346 8.116871,0.2955 9.333788,0.55525 8.824129,1.88339 -0.379335,0.98856 -12.418129,1.22743 -61.914938,1.22868 -42.186723,8.7e-4 -42.779673,0.0141 -43.638443,0.87167 -1.50288,1.50288 -1.47991,1.5882 4.38482,16.32359 0.76236,1.91532 1.63985,4.16797 1.95008,5.00591 0.31018,0.83794 1.1801,2.99268 1.93317,4.78826 0.75307,1.7956 1.53235,3.75443 1.73175,4.35296 0.19941,0.59853 2.64766,6.76887 5.44053,13.71181 2.79289,6.94299 5.17719,13.50506 5.29853,14.58244 0.57633,3.00761 -0.36377,3.27955 -3.92918,4.62618 z m 72.59996,-6.54163 c -0.128806,-0.33551 4.431723,-8.57135 10.134304,-18.30189 5.702612,-9.73053 10.776289,-18.41773 11.274869,-19.30484 0.498579,-0.88711 2.342629,-4.06147 4.097921,-7.05413 6.887409,-11.74276 7.495981,-12.87804 7.480484,-13.95498 -0.0085,-0.61257 -4.045778,-14.19038 -8.971074,-30.172944 -4.925268,-15.982541 -8.955045,-29.422014 -8.955045,-29.865498 0,-1.617092 0.506312,-2.183421 1.952101,-2.183421 0.783024,0 1.636413,0.256488 1.896445,0.569675 0.260146,0.313327 4.51199,12.213218 9.448788,26.444236 4.936799,14.231017 9.314664,26.224282 9.728618,26.651702 0.722417,0.74599 0.780661,0.74599 1.452512,0 0.743255,-0.82527 8.6794311,-14.229102 9.1484511,-15.451308 0.152433,-0.396967 -0.606265,-5.469352 -1.685713,-11.271997 -1.079477,-5.802646 -1.845118,-11.018772 -1.701405,-11.591343 0.207271,-0.825886 0.503837,-1.012908 1.434567,-0.9048 1.015578,0.117833 1.332534,0.551732 2.357845,3.226869 2.16156814,5.63981 5.5797365,17.290129 5.5797365,19.017775 0,1.159489 -0.4696952,2.485415 -1.4741087,4.161426 -0.81075426,1.352869 -3.1406158,5.300048 -5.1774838,8.771538 -25.2347981,43.00851 -41.4476431,70.44184 -41.9970441,71.06207 -0.870262,0.98251 -5.659692,1.1032 -6.024768,0.15188 z m -117.15973,-73.61942 c -0.83443,-0.58905 -0.97942,-1.08738 -0.97942,-3.366418 0,-2.492023 0.92744,-4.999177 13.55742,-36.649019 7.4566,-18.68569 13.7563,-34.414723 13.99934,-34.953406 0.63531,-1.408019 3.68169,-1.390722 5.01496,0.02841 1.12548,1.198018 12.78587,29.001506 12.49322,29.789283 -0.12398,0.333942 -1.02745,0.544138 -2.33867,0.544138 h -2.13655 l -0.95011,-2.285312 c -0.52261,-1.256911 -1.2251,-2.872961 -1.56112,-3.591187 -0.55552,-1.187473 -2.35873,-5.460829 -5.64815,-13.385363 -0.67082,-1.616022 -1.43511,-2.936914 -1.69846,-2.935254 -0.52138,0.0028 -12.01416,31.641488 -12.01416,33.073525 0,1.100711 -0.47948,1.10926 11.83626,-0.211491 5.5804,-0.598447 11.74625,-1.088166 13.70188,-1.088252 3.55124,-1.68e-4 3.5568,0.0017 4.44115,1.432572 1.01926,1.649152 11.80913,28.723755 11.80913,29.632125 0,0.644739 -1.81791,1.147059 -4.15127,1.147059 -1.37559,0 -1.47673,-0.121492 -2.62889,-3.155914 -4.32182,-11.382609 -7.38808,-18.524343 -8.40111,-19.5674 l -1.14232,-1.176166 -13.92947,2.835753 c -12.07691,2.458612 -14.05286,2.972098 -14.85711,3.860837 -1.07493,1.18781 -2.52361,4.801157 -5.58827,13.938165 l -2.19002,6.529455 -2.82943,0.12262 c -2.04146,0.0886 -3.10217,-0.07 -3.80883,-0.5688 z M -89.997502,72.871372 C -95.786847,58.40043 -100.79458,46.335651 -101.12582,46.060739 c -0.47728,-0.396096 -1.07982,-0.05905 -2.90371,1.624066 -3.82007,3.525378 -7.11908,5.836199 -7.90263,5.535499 -0.56722,-0.217677 -0.71059,-0.912056 -0.71059,-3.44123 0,-3.538538 -0.0297,-3.4808 6.42496,-12.40896 2.89963,-4.010681 3.04111,-4.135326 4.69452,-4.135326 1.541373,0 1.795213,0.166774 2.648703,1.741202 0.51917,0.957644 4.9991,12.390145 9.955413,25.405537 4.956286,13.015395 9.373361,24.278674 9.815744,25.029523 1.202381,2.040835 5.236343,12.928098 4.957382,13.379457 -0.13303,0.215428 -1.385801,0.391652 -2.783723,0.391652 h -2.541688 z m 42.477514,24.025476 c -0.344854,-0.538658 -4.395358,-9.500339 -9.001085,-19.914786 -4.605724,-10.414476 -8.625602,-19.210283 -8.933024,-19.546306 -0.470482,-0.514189 -1.017548,-0.152431 -3.455219,2.285313 -3.06409,3.06409 -4.288123,3.524983 -5.577572,2.100174 -1.450262,-1.602551 -0.940545,-4.563146 1.876928,-10.90127 1.423121,-3.201447 2.920377,-6.188675 3.327272,-6.638262 0.847878,-0.936917 2.707209,-1.071152 3.785956,-0.273364 0.404617,0.299266 2.082344,3.482376 3.728233,7.073563 1.645918,3.591186 4.01507,8.684157 5.264835,11.317699 1.249767,2.633543 2.532973,5.47385 2.851587,6.311801 0.722389,1.899792 3.222315,7.771764 4.540421,10.664748 3.392324,7.445528 7.74679,17.891697 7.574393,18.170658 -0.111941,0.181117 -1.362825,0.329442 -2.779647,0.329442 -2.195457,0 -2.668669,-0.144833 -3.203078,-0.979441 z"
         id="path913" />
    </g>
  </g>
</svg>
